<?xml version="1.0" encoding="UTF-8"?>
<svg width="24px" height="24px" enableBackground="new 1000 1000 2610 2084" viewBox="500 750 1500 500" version="1.1" xmlns="http://www.w3.org/2000/svg" xmlns:xlink="http://www.w3.org/1999/xlink">
    <title>meta_icon_dark</title>
    <g data-name="Artboard outline" id="Artboard_outline">
        <rect height="2000" fill="none" width="2504.8275" />
      </g>
    <g stroke-width="2" fill-rule="evenodd">
        <path d="M1580,500c-123.3911,0-219.8478,92.936-307.164,210.9931C1152.8473,558.2153,1052.5,500,932.4138,500,687.5862,500,500,818.6207,500,1155.8621,500,1366.8965,602.0956,1500,773.1035,1500c123.08,0,211.6-58.0259,368.9655-333.1034,0,0,65.5973-115.8413,110.7249-195.6386q23.72,38.2978,49.9647,82.5351l73.7931,124.1379C1520.2989,1418.4789,1600.39,1500,1745.5172,1500c166.5959,0,259.31-134.9233,259.31-350.3448C2004.8276,796.5517,1813.0118,500,1580,500ZM1022.069,1092.4138c-127.5862,200-171.7242,244.8276-242.7587,244.8276-73.1034,0-116.5517-64.1784-116.5517-178.6207,0-244.8276,122.069-495.1724,267.5862-495.1724,78.8013,0,144.6539,45.51,245.5224,189.9131C1080.088,1000.2723,1022.069,1092.4138,1022.069,1092.4138Zm481.5282-25.1776-88.23-147.1488q-35.815-58.248-68.8382-107.2293c79.52-122.7353,145.1135-183.8926,223.1261-183.8926,162.0691,0,291.7243,238.6207,291.7243,531.7241,0,111.7242-36.5935,176.5518-112.4139,176.5518C1676.2949,1337.2414,1641.5786,1289.2478,1503.5972,1067.2362Z" ></path>
    </g>
</svg>
